PathFileType	4	(X/Y/Z)	/Users/itak/Documents/Research/Walk-IL/dataset/trc/00392_00012.trc
DataRate	CameraRate	NumFrames	NumMarkers	Units	OrigDataRate	OrigDataStartFrame	OrigNumFrames
100.000000	100.000000	4	54	mm	100.000000	134	537
Frame#	Time	RPSI			LPSI			L3			STRN			T10			C7			CLAV			RBAK			LBAK			LSHO			LUPA			LAEL			LAOL			LWTS			LWPS			LFRA			LIFD			LHPS			LHTS			RSHO			RUPA			RAEL			RAOL			RWTS			RWPS			RFRA			RIFD			RHTS			RHPS			RBHD			LFHD			RFHD			LBHD			LHIP			RHIP			RASI			LASI			LKNE			LTHI			LANK			LTIP			LTOE			LMT1			LMT5			LHEE			RKNE			RANK			RTIP			RTOE			RMT1			RMT5			RHEE			RTHI			*53			
		X1	Y1	Z1	X2	Y2	Z2	X3	Y3	Z3	X4	Y4	Z4	X5	Y5	Z5	X6	Y6	Z6	X7	Y7	Z7	X8	Y8	Z8	X9	Y9	Z9	X10	Y10	Z10	X11	Y11	Z11	X12	Y12	Z12	X13	Y13	Z13	X14	Y14	Z14	X15	Y15	Z15	X16	Y16	Z16	X17	Y17	Z17	X18	Y18	Z18	X19	Y19	Z19	X20	Y20	Z20	X21	Y21	Z21	X22	Y22	Z22	X23	Y23	Z23	X24	Y24	Z24	X25	Y25	Z25	X26	Y26	Z26	X27	Y27	Z27	X28	Y28	Z28	X29	Y29	Z29	X30	Y30	Z30	X31	Y31	Z31	X32	Y32	Z32	X33	Y33	Z33	X34	Y34	Z34	X35	Y35	Z35	X36	Y36	Z36	X37	Y37	Z37	X38	Y38	Z38	X39	Y39	Z39	X40	Y40	Z40	X41	Y41	Z41	X42	Y42	Z42	X43	Y43	Z43	X44	Y44	Z44	X45	Y45	Z45	X46	Y46	Z46	X47	Y47	Z47	X48	Y48	Z48	X49	Y49	Z49	X50	Y50	Z50	X51	Y51	Z51	X52	Y52	Z52	X53	Y53	Z53	X54	Y54	Z54	

135	1.34	958.8718872070312	975.3075561523438	-9.345401763916016	950.564697265625	968.5113525390625	-139.9787750244141	954.9038696289062	1043.02001953125	-73.51947784423828	1193.074096679688	1211.609252929688	-71.60983276367188	948.28515625	1146.238891601562	-79.04078674316406	973.2268676757812	1397.001220703125	-90.43110656738281	1134.140625	1328.416381835938	-76.73630523681641	937.88916015625	1249.1552734375	-20.83141326904297	965.2039184570312	1356.56494140625	-193.663330078125	1054.287475585938	1375.645141601562	-241.1673736572266	1040.620239257812	1255.472534179688	-308.8031616210938	1077.271118164062	1060.028198242188	-324.4555053710938	1018.34130859375	1035.94384765625	-266.0879516601562	1182.332153320312	855.3323364257812	-264.7720947265625	1139.750122070312	834.6036987304688	-332.3322448730469	1104.356567382812	957.0225219726562	-329.1272888183594	1201.69287109375	678.2229614257812	-262.4010009765625	1160.570434570312	751.6007080078125	-320.1696166992188	1210.190185546875	760.4418334960938	-280.1112365722656	1027.92529296875	1381.634033203125	72.38381195068359	1017.3310546875	1315.561157226562	132.0965118408203	1047.664794921875	1054.87548828125	170.0744018554688	1021.98046875	1042.326293945312	81.03817749023438	1183.375732421875	846.4707641601562	125.899528503418	1150.057006835938	833.81298828125	190.9370727539062	1079.999267578125	991.522705078125	183.081787109375	1193.802124023438	674.55517578125	128.2401885986328	1210.4072265625	743.7899169921875	143.6286010742188	1158.85400390625	744.6456909179688	189.9570770263672	985.6978759765625	1585.898803710938	-21.38714027404785	1166.4736328125	1601.996459960938	-101.3892822265625	1115.381225585938	1603.739868164062	10.0958080291748	1037.637451171875	1580.41455078125	-173.0396423339844	1033.114624023438	957.925537109375	-255.1222076416016	1055.641967773438	950.802978515625	105.4895782470703	1176.224975585938	964.7227783203125	46.74696731567383	1153.5341796875	959.9140014648438	-216.388427734375	1075.845336914062	465.7178039550781	-234.7831573486328	1072.292724609375	608.5348510742188	-245.6225738525391	957.3348388671875	34.385009765625	-198.4798583984375	1013.840270996094	237.1860656738281	-228.7134399414062	1171.845825195312	31.82022285461426	-134.7586975097656	1091.343872070312	34.03214263916016	-104.5360870361328	1084.952758789062	30.49007606506348	-208.9311218261719	918.628662109375	30.48894691467285	-142.7109375	1070.231323242188	464.628173828125	70.58583068847656	1001.362548828125	47.61903381347656	26.68146705627441	1072.50830078125	338.5988159179688	52.39389419555664	1180.6318359375	28.94954299926758	-34.75619506835938	1104.675903320312	32.31086730957031	-63.58053207397461	1085.932006835938	37.29245376586914	33.53127670288086	925.1764526367188	33.23342895507812	-25.00132179260254	1111.5126953125	730.9937744140625	104.1582565307617	nan	nan	nan	
136	1.35	958.5171508789062	975.3050537109375	-9.12364387512207	950.3128051757812	968.442138671875	-139.8067016601562	954.6442260742188	1043.047485351562	-73.29929351806641	1192.730346679688	1211.66845703125	-71.28495025634766	947.9940185546875	1146.25146484375	-78.80924224853516	972.8699340820312	1397.000366210938	-90.18511962890625	1133.776489257812	1328.45458984375	-76.43739318847656	937.34375	1249.122924804688	-20.60231971740723	964.8970947265625	1356.600341796875	-193.4280853271484	1053.978149414062	1375.684204101562	-240.9020690917969	1040.339965820312	1255.510864257812	-308.54541015625	1077.095825195312	1060.08203125	-324.1846923828125	1018.101928710938	1035.986572265625	-265.901123046875	1182.208984375	855.42822265625	-264.4513244628906	1139.703491210938	834.6867065429688	-332.0616149902344	1104.2109375	957.1134643554688	-328.8659362792969	1201.7919921875	678.4232788085938	-262.2296447753906	1160.550659179688	751.7310791015625	-319.9197082519531	1210.194213867188	760.671875	-279.9518127441406	1027.532470703125	1381.625366210938	72.68309783935547	1016.916687011719	1315.555297851562	132.3734283447266	1047.3447265625	1054.877197265625	170.3570251464844	1021.595886230469	1042.359497070312	81.30107116699219	1183.068359375	846.5330200195312	126.1371688842773	1149.757080078125	833.8404541015625	191.1590270996094	1079.602661132812	991.51611328125	183.31103515625	1193.602172851562	674.61962890625	128.4164276123047	1210.201171875	743.8739013671875	143.8679656982422	1158.706787109375	744.7067260742188	190.2050476074219	985.4646606445312	1585.941650390625	-21.06244659423828	1166.149047851562	1602.099853515625	-101.3434753417969	1115.019165039062	1603.68310546875	10.2292013168335	1037.1875	1580.416748046875	-172.7383880615234	1032.896240234375	957.968994140625	-254.9259185791016	1055.341186523438	950.8143310546875	105.7516860961914	1175.925537109375	964.7880249023438	47.01042938232422	1153.297973632812	960.090087890625	-216.1918029785156	1075.906982421875	465.7995910644531	-234.6243591308594	1072.291870117188	608.5875854492188	-245.4359893798828	957.34765625	34.39670944213867	-198.4811401367188	1013.882080078125	237.2147827148438	-228.6456756591797	1171.828491210938	31.82148742675781	-134.8053741455078	1091.330200195312	33.9963264465332	-104.508186340332	1084.963500976562	30.48774528503418	-208.9202575683594	918.6631469726562	30.53077125549316	-142.7190399169922	1070.146606445312	464.6101684570312	70.67005920410156	1001.345886230469	47.62069320678711	26.67984390258789	1072.471313476562	338.5929565429688	52.46546936035156	1180.643310546875	28.93027305603027	-34.76531600952148	1104.677490234375	32.31977462768555	-63.58390808105469	1085.958374023438	37.23208618164062	33.48405456542969	925.1819458007812	33.25521087646484	-24.97609329223633	1111.117431640625	731.0394897460938	104.3133163452148	nan	nan	nan	
137	1.36	958.14013671875	975.2982177734375	-8.921917915344238	950.0242919921875	968.3746948242188	-139.6328582763672	954.384765625	1043.07763671875	-73.07502746582031	1192.390869140625	1211.74072265625	-70.95389556884766	947.7021484375	1146.26220703125	-78.55326080322266	972.5061645507812	1397.015747070312	-89.93894195556641	1133.397216796875	1328.488403320312	-76.1185302734375	936.790283203125	1249.088012695312	-20.36340713500977	964.5836791992188	1356.644409179688	-193.1835632324219	1053.6533203125	1375.716674804688	-240.6181793212891	1040.052978515625	1255.555541992188	-308.2822875976562	1076.916625976562	1060.136840820312	-323.9126281738281	1017.848937988281	1036.03369140625	-265.7065124511719	1182.057373046875	855.5308837890625	-264.1080627441406	1139.643920898438	834.7813110351562	-331.7998962402344	1104.056640625	957.205078125	-328.5985107421875	1201.843872070312	678.5822143554688	-261.9953918457031	1160.515380859375	751.859375	-319.6735534667969	1210.1513671875	760.8604736328125	-279.7295227050781	1027.10888671875	1381.60546875	72.99265289306641	1016.479431152344	1315.543823242188	132.6552581787109	1046.988159179688	1054.868774414062	170.640380859375	1021.164978027344	1042.38720703125	81.55297088623047	1182.749877929688	846.5891723632812	126.3889846801758	1149.419311523438	833.862548828125	191.3860473632812	1079.177856445312	991.5039672851562	183.5454254150391	1193.374877929688	674.6901245117188	128.5915985107422	1209.972290039062	743.9617309570312	144.1165771484375	1158.493530273438	744.7476806640625	190.4360046386719	985.16064453125	1585.979125976562	-20.75353813171387	1165.8056640625	1602.193603515625	-101.2926483154297	1114.645263671875	1603.627319335938	10.39420127868652	1036.718627929688	1580.409423828125	-172.434326171875	1032.671142578125	958.0149536132812	-254.73193359375	1055.016845703125	950.8154296875	105.9957427978516	1175.611206054688	964.848876953125	47.2833137512207	1153.068481445312	960.2911376953125	-216.0146789550781	1075.961791992188	465.8820495605469	-234.4561004638672	1072.2900390625	608.6392211914062	-245.2529449462891	957.3598022460938	34.40742111206055	-198.4823303222656	1013.922668457031	237.2442932128906	-228.5772247314453	1171.814331054688	31.82140159606934	-134.8436584472656	1091.3095703125	33.94792556762695	-104.4726867675781	1084.971801757812	30.48637580871582	-208.9064788818359	918.6949462890625	30.56814002990723	-142.7193298339844	1070.027099609375	464.58935546875	70.77008056640625	1001.331298828125	47.6159553527832	26.68977928161621	1072.42822265625	338.5911865234375	52.55982208251953	1180.648803710938	28.91485023498535	-34.76960754394531	1104.67578125	32.34029769897461	-63.58611679077148	1085.981079101562	37.18891143798828	33.44592666625977	925.1769409179688	33.26953887939453	-24.94552040100098	1110.83251953125	731.0155029296875	104.4160537719727	nan	nan	nan	
138	1.37	957.7496337890625	975.2857055664062	-8.744173049926758	949.6947021484375	968.312744140625	-139.4524688720703	954.1184692382812	1043.109008789062	-72.84656524658203	1192.049926757812	1211.818115234375	-70.61380004882812	947.4130859375	1146.271118164062	-78.27487945556641	972.130615234375	1397.043090820312	-89.68558502197266	1133.000732421875	1328.517211914062	-75.77725219726562	936.21630859375	1249.05712890625	-20.12952041625977	964.2582397460938	1356.694213867188	-192.9264526367188	1053.309814453125	1375.741455078125	-240.3121795654297	1039.757080078125	1255.605712890625	-308.0132446289062	1076.7275390625	1060.192260742188	-323.6424865722656	1017.580810546875	1036.080444335938	-265.5015563964844	1181.881713867188	855.63671875	-263.7515869140625	1139.561401367188	834.8858642578125	-331.5464172363281	1103.890991210938	957.2900390625	-328.3218383789062	1201.846069335938	678.7059326171875	-261.7073364257812	1160.455810546875	751.9830322265625	-319.4296875	1210.058715820312	761.0140380859375	-279.4534912109375	1026.649658203125	1381.577758789062	73.30763244628906	1016.01513671875	1315.526000976562	132.9389343261719	1046.582397460938	1054.849609375	170.9160461425781	1020.689147949219	1042.401000976562	81.79151153564453	1182.425048828125	846.6390991210938	126.6564559936523	1149.049560546875	833.87890625	191.6206359863281	1078.73681640625	991.4872436523438	183.7900695800781	1193.122314453125	674.764404296875	128.7737274169922	1209.717163085938	744.0494995117188	144.3747100830078	1158.209594726562	744.7685546875	190.6514434814453	984.7861328125	1586.012573242188	-20.44967651367188	1165.430908203125	1602.2646484375	-101.2211227416992	1114.272827148438	1603.568603515625	10.58145427703857	1036.231811523438	1580.396606445312	-172.1292266845703	1032.451049804688	958.0558471679688	-254.5354614257812	1054.63037109375	950.7987060546875	106.2004165649414	1175.275390625	964.9019775390625	47.5630989074707	1152.840942382812	960.4888916015625	-215.8455200195312	1076.002563476562	465.9584045410156	-234.2834014892578	1072.28076171875	608.6884155273438	-245.0745697021484	957.3698120117188	34.41733551025391	-198.4836730957031	1013.961364746094	237.2732696533203	-228.5086669921875	1171.807983398438	31.81985855102539	-134.8673095703125	1091.284790039062	33.89194488525391	-104.4343032836914	1084.977661132812	30.4860782623291	-208.8914642333984	918.7281494140625	30.60245704650879	-142.7117309570312	1069.870727539062	464.5678100585938	70.88790130615234	1001.318725585938	47.60477447509766	26.71100616455078	1072.380981445312	338.5936584472656	52.67752075195312	1180.646728515625	28.90314674377441	-34.76895904541016	1104.671630859375	32.37020492553711	-63.58589553833008	1085.99365234375	37.17464065551758	33.42771148681641	925.1594848632812	33.27636337280273	-24.90992546081543	1110.655517578125	730.931640625	104.4634475708008	nan	nan	nan	
